<svg width="96" height="96" viewBox="0 0 96 96" fill="none" xmlns="http://www.w3.org/2000/svg">
<path d="M45.6175 8.88837L59.1457 36.0541C61.0231 39.791 62 43.9063 62 48.0781C62 52.2499 61.0231 56.3652 59.1457 60.1021L45.6175 87.035C42.7539 93.0114 37.8821 95.9996 31.0024 95.9996C27.8696 96.0205 24.8015 95.1199 22.1887 93.4124C19.6917 91.8495 17.6619 89.6569 16.3087 87.0608L2.715 60.1668C0.859294 56.4392 -0.070029 52.3284 0.00411237 48.1751C-0.0654329 44.0016 0.863387 39.8708 2.715 36.1187L16.3087 8.95303C17.5728 6.18305 19.6484 3.85089 22.2676 2.25754C24.8868 0.664203 27.9292 -0.117183 31.0024 0.0142265C37.821 0.0142265 42.6927 2.97229 45.6175 8.88837ZM26.9033 14.9554L14.1871 40.517C13.0649 42.8695 12.4665 45.4324 12.4322 48.0328C12.4303 50.6581 13.0302 53.2498 14.1871 55.6133L27.2831 81.4854C27.5627 82.2272 28.0766 82.8605 28.7488 83.2915C29.421 83.7225 30.2157 83.9283 31.0155 83.8786C31.7852 83.8708 32.5356 83.6398 33.1735 83.2143C33.8114 82.7888 34.3088 82.1877 34.6038 81.4854L47.6998 55.6133C48.8741 53.2526 49.5004 50.6629 49.5332 48.0328C49.5391 45.4188 48.9103 42.8415 47.6998 40.517L34.9312 14.9554C34.666 14.1331 34.1418 13.416 33.4351 12.9087C32.7283 12.4014 31.876 12.1305 31.0024 12.1353C30.1141 12.1552 29.2515 12.4333 28.5224 12.9349C27.7933 13.4365 27.2302 14.1393 26.9033 14.9554Z" fill="#99FF25"/>
<path d="M42 3C93.3108 42.7844 96 45.5192 96 45.5192L42.3314 93L58.3262 47.2382L42 3Z" fill="#99FF25"/>
</svg>
