<svg width="27" height="21" viewBox="0 0 27 21" fill="none" xmlns="http://www.w3.org/2000/svg">
<path d="M6.05222 20.0026V9.70083L2.87279 6.77798L0.0217285 5.15601V18.1846C0.0217285 19.1905 0.832779 20.0026 1.83092 20.0026H6.05222Z" fill="#4285F4"/>
<path d="M20.5254 20.0026H24.7467C25.7478 20.0026 26.5559 19.1875 26.5559 18.1846V5.15607L23.3266 7.01385L20.5254 9.70079V20.0026V20.0026Z" fill="#34A853"/>
<path d="M6.05201 9.70079L5.61938 5.67558L6.05201 1.82306L13.2886 7.27694L20.5251 1.82306L21.009 5.46759L20.5251 9.70079L13.2886 15.1547L6.05201 9.70079Z" fill="#EA4335"/>
<path d="M20.5254 1.82313V9.70086L26.5559 5.15603V2.73207C26.5559 0.483925 24.002 -0.79768 22.214 0.550582L20.5254 1.82313Z" fill="#FBBC04"/>
<path d="M0.0217285 5.15589L2.79526 7.24625L6.05222 9.70072V1.82299L4.36357 0.550447C2.57252 -0.79792 0.0217285 0.483789 0.0217285 2.73183V5.15579V5.15589Z" fill="#C5221F"/>
</svg>
