<svg width="20" height="20" viewBox="0 0 20 20" fill="none" xmlns="http://www.w3.org/2000/svg">
<path d="M10 0C8.88609 0 7.8178 0.451529 7.03015 1.25526C6.2425 2.05898 5.8 3.14907 5.8 4.28571V10C5.8 11.1366 6.2425 12.2267 7.03015 13.0305C7.8178 13.8342 8.88609 14.2857 10 14.2857C11.1139 14.2857 12.1822 13.8342 12.9698 13.0305C13.7575 12.2267 14.2 11.1366 14.2 10V4.28571C14.2 3.14907 13.7575 2.05898 12.9698 1.25526C12.1822 0.451529 11.1139 0 10 0V0ZM3.7 9.28571C3.88565 9.28571 4.0637 9.36097 4.19497 9.49492C4.32625 9.62888 4.4 9.81056 4.4 10C4.4 11.5155 4.99 12.969 6.0402 14.0406C7.09041 15.1122 8.51479 15.7143 10 15.7143C11.4852 15.7143 12.9096 15.1122 13.9598 14.0406C15.01 12.969 15.6 11.5155 15.6 10C15.6 9.81056 15.6737 9.62888 15.805 9.49492C15.9363 9.36097 16.1143 9.28571 16.3 9.28571C16.4857 9.28571 16.6637 9.36097 16.795 9.49492C16.9263 9.62888 17 9.81056 17 10C17 13.7043 14.2371 16.75 10.6993 17.1071L10.7 17.1429V19.2857C10.7 19.4752 10.6263 19.6568 10.495 19.7908C10.3637 19.9247 10.1857 20 10 20C9.81435 20 9.6363 19.9247 9.50503 19.7908C9.37375 19.6568 9.3 19.4752 9.3 19.2857V17.1429L9.3007 17.1071C5.7629 16.75 3 13.705 3 10C3 9.81056 3.07375 9.62888 3.20503 9.49492C3.3363 9.36097 3.51435 9.28571 3.7 9.28571Z" fill="white"/>
</svg>
