<svg width="24" height="30" viewBox="0 0 24 30" fill="none" xmlns="http://www.w3.org/2000/svg">
<path d="M12.002 30C13.7422 30 15.166 28.6154 15.166 26.9231H8.83791C8.83791 27.7391 9.17127 28.5218 9.76464 29.0988C10.358 29.6758 11.1628 30 12.002 30ZM21.4941 20.7692V13.0769C21.4941 8.35385 18.8996 4.4 14.375 3.35385V2.30769C14.375 1.03077 13.315 0 12.002 0C10.6889 0 9.62892 1.03077 9.62892 2.30769V3.35385C5.08853 4.4 2.50984 8.33846 2.50984 13.0769V20.7692L0.469033 22.7538C-0.527639 23.7231 0.168449 25.3846 1.57645 25.3846H22.4116C23.8196 25.3846 24.5315 23.7231 23.5349 22.7538L21.4941 20.7692Z" fill="white"/>
</svg>
