<svg width="21" height="20" viewBox="0 0 21 20" fill="none" xmlns="http://www.w3.org/2000/svg">
<path d="M18.2575 16V4H1.89387V16H18.2575ZM18.2575 2C18.7397 2 19.2022 2.21071 19.5431 2.58579C19.8841 2.96086 20.0757 3.46957 20.0757 4V16C20.0757 16.5304 19.8841 17.0391 19.5431 17.4142C19.2022 17.7893 18.7397 18 18.2575 18H1.89387C1.41165 18 0.949192 17.7893 0.608217 17.4142C0.267242 17.0391 0.0756836 16.5304 0.0756836 16V4C0.0756836 2.89 0.884774 2 1.89387 2H18.2575ZM12.803 6H16.4393V8H12.803V6ZM16.4393 9V14H12.803V9H16.4393ZM3.71205 12H7.34841V14H3.71205V12ZM8.2575 12H11.8939V14H8.2575V12Z" fill="white"/>
<path d="M11.8939 6H3.71205V11H11.8939V6Z" fill="#99FF25"/>
</svg>
