<svg width="21" height="20" viewBox="0 0 21 20" fill="none" xmlns="http://www.w3.org/2000/svg">
<path d="M19.7655 10.9091C19.6831 10.9096 19.6014 10.8934 19.5251 10.8614C19.4488 10.8295 19.3794 10.7824 19.3209 10.7229L10.3718 1.54145L1.42275 10.7229C1.30295 10.8281 1.14885 10.883 0.991236 10.8768C0.833624 10.8705 0.684115 10.8036 0.572584 10.6892C0.461053 10.5749 0.395715 10.4216 0.389627 10.26C0.383539 10.0984 0.43715 9.94041 0.539745 9.81758L9.93344 0.186706C10.0508 0.0671219 10.2095 0 10.3749 0C10.5404 0 10.6991 0.0671219 10.8164 0.186706L20.2101 9.81758C20.2963 9.90771 20.3547 10.0219 20.3779 10.1458C20.4011 10.2698 20.3882 10.398 20.3408 10.5145C20.2933 10.6309 20.2135 10.7305 20.1112 10.8007C20.0088 10.8708 19.8886 10.9086 19.7655 10.9091Z" fill="#99FF25"/>
<path d="M16.4496 18.7367H13.4194V12.4202H7.35899V18.7367H4.32878V9.8936L3.1167 11.1569V18.7367C3.1167 19.0718 3.2444 19.3931 3.47171 19.63C3.69902 19.8669 4.00732 20 4.32878 20H8.57108V13.6835H12.2073V20H16.4496C16.7711 20 17.0794 19.8669 17.3067 19.63C17.534 19.3931 17.6617 19.0718 17.6617 18.7367V11.1094L16.4496 9.86328V18.7367Z" fill="white"/>
</svg>
