<svg width="20" height="20" viewBox="0 0 20 20" fill="none" xmlns="http://www.w3.org/2000/svg">
<path d="M1.41667 6.8H15.5833C16.3625 6.8 17 7.565 17 8.5C17 9.435 16.3625 10.2 15.5833 10.2H1.41667C0.6375 10.2 0 9.435 0 8.5C0 7.565 0.6375 6.8 1.41667 6.8ZM1.41667 0H15.5833C16.3625 0 17 0.765 17 1.7C17 2.635 16.3625 3.4 15.5833 3.4H1.41667C0.6375 3.4 0 2.635 0 1.7C0 0.765 0.6375 0 1.41667 0ZM1.41667 13.6H9.91667C10.6958 13.6 11.3333 14.365 11.3333 15.3C11.3333 16.235 10.6958 17 9.91667 17H1.41667C0.6375 17 0 16.235 0 15.3C0 14.365 0.6375 13.6 1.41667 13.6Z" fill="white"/>
<path d="M13 19.2334V12.7741C13.0003 12.6383 13.0366 12.5051 13.1054 12.3875C13.1741 12.27 13.2728 12.1724 13.3917 12.1044C13.5105 12.0364 13.6454 12.0004 13.7827 12C13.9201 11.9996 14.0551 12.0348 14.1744 12.1022L19.6291 15.3395C20.1236 15.6449 20.1236 16.3626 19.6291 16.6527L14.1744 19.89C13.649 20.1954 13 19.8289 13 19.2334Z" fill="#99FF25"/>
</svg>
