<svg width="38" height="24" viewBox="0 0 38 24" fill="none" xmlns="http://www.w3.org/2000/svg">
<path d="M26.5999 6.31579V21.4737C26.5999 22.1437 26.333 22.7863 25.8579 23.2601C25.3829 23.7338 24.7385 24 24.0666 24H6.33332C5.50162 24 4.67806 23.8366 3.90966 23.5192C3.14127 23.2018 2.44309 22.7366 1.85499 22.1501C0.667259 20.9657 0 19.3593 0 17.6842V2.52632C0 1.8563 0.266903 1.21372 0.741995 0.739941C1.21709 0.266165 1.86145 0 2.53333 0H20.2666C21.9463 0 23.5572 0.665412 24.745 1.84985C25.9327 3.03429 26.5999 4.64074 26.5999 6.31579V6.31579ZM37.3666 3.33158C37.1757 3.21586 36.9566 3.15466 36.7333 3.15466C36.5099 3.15466 36.2908 3.21586 36.0999 3.33158L29.7666 6.93158C29.5724 7.0434 29.4114 7.20464 29.3001 7.39883C29.1888 7.59302 29.1313 7.81319 29.1333 8.03684V15.9632C29.1313 16.1868 29.1888 16.407 29.3001 16.6012C29.4114 16.7954 29.5724 16.9566 29.7666 17.0684L36.0999 20.6684C36.2929 20.7788 36.5108 20.8386 36.7333 20.8421C36.956 20.8408 37.1745 20.7808 37.3666 20.6684C37.5607 20.5605 37.722 20.4023 37.8334 20.2105C37.9449 20.0188 38.0024 19.8006 37.9999 19.5789V4.42105C38.0024 4.19943 37.9449 3.98124 37.8334 3.78949C37.722 3.59774 37.5607 3.43954 37.3666 3.33158V3.33158Z" fill="white"/>
<path d="M13.4119 6L21.608 14.069H17.1947V24H9.62909V14.069H5.21582L13.4119 6Z" fill="#1C1C1C"/>
</svg>
