<svg width="27" height="20" viewBox="0 0 27 20" fill="none" xmlns="http://www.w3.org/2000/svg">
<path d="M0 1.57895C0 0.706919 0.706919 0 1.57895 0H24.4252C25.2972 0 26.0042 0.706919 26.0042 1.57895C26.0042 2.45098 25.2972 3.15789 24.4252 3.15789H1.57895C0.706919 3.15789 0 2.45098 0 1.57895Z" fill="#D9D9D9"/>
<path d="M0 10C0 9.128 0.706919 8.42108 1.57895 8.42108H24.4252C25.2972 8.42108 26.0042 9.128 26.0042 10C26.0042 10.8721 25.2972 11.579 24.4252 11.579H1.57895C0.706919 11.579 0 10.8721 0 10Z" fill="#D9D9D9"/>
<path d="M0 18.421C0 17.549 0.706919 16.8421 1.57895 16.8421H24.4252C25.2972 16.8421 26.0042 17.549 26.0042 18.421C26.0042 19.2931 25.2972 20 24.4252 20H1.57895C0.706919 20 0 19.2931 0 18.421Z" fill="#D9D9D9"/>
</svg>
