<svg width="20" height="20" viewBox="0 0 20 20" fill="none" xmlns="http://www.w3.org/2000/svg">
<path d="M0.555556 10.5983C0.555556 10.0338 1.11308 9.44447 1.97531 9.44447H6.91358C7.77581 9.44447 8.33333 10.0338 8.33333 10.5983V18.2906C8.33333 18.8552 7.77581 19.4445 6.91358 19.4445H1.97531C1.11308 19.4445 0.555556 18.8552 0.555556 18.2906V10.5983Z" stroke="white" stroke-width="1.11111"/>
<path d="M11.6669 1.53846C11.6669 1.11686 12.1653 0.555556 13.0866 0.555556H18.0249C18.9463 0.555556 19.4447 1.11686 19.4447 1.53846V8.46154C19.4447 8.88314 18.9463 9.44444 18.0249 9.44444H13.0866C12.1653 9.44444 11.6669 8.88314 11.6669 8.46154V1.53846Z" stroke="white" stroke-width="1.11111"/>
<rect x="0.555556" y="0.555556" width="7.77778" height="5.55556" rx="1.66667" stroke="#99FF25" stroke-width="1.11111"/>
<path d="M18.6172 15.6146C19.0554 15.8106 19.0554 16.4328 18.6172 16.6288L12.4493 19.388C12.0818 19.5524 11.6669 19.2835 11.6669 18.8809L11.6669 13.3625C11.6669 12.9599 12.0818 12.691 12.4493 12.8554L18.6172 15.6146Z" stroke="#99FF25" stroke-width="1.11111"/>
</svg>
